Patient4_TMGait_0pt5_01_left_15_GRF.mot
version=1
nRows=58
nColumns=19
inDegrees=no
endheader
time	F1x	F1y	F1z	M1x	M1y	M1z	F2x	F2y	F2z	M2x	M2y	M2z	EC1x	EC1y	EC1z	EC2x	EC2y	EC2z
20.05	-9.1636	1.0956	2.8188	-0.84855	-6.9684	2.6621	-40.3848	740.7148	-54.0329	276.6321	61.8936	682.7899	-0.0592	0.0182	-0.0073	-0.0462	0.0165	0.9585
20.0634	-6.3289	1.0377	2.0238	-0.7265	-4.7897	2.1395	-41.5032	733.3381	-53.864	274.9647	62.7327	671.6051	-0.0592	0.0182	-0.0073	-0.0462	0.0165	0.9585
20.0769	-3.9027	1.032	1.3246	-0.61515	-2.9302	1.7165	-41.6607	728.0106	-53.1673	273.9553	62.6513	661.7167	-0.0592	0.0182	-0.0073	-0.0462	0.0165	0.9585
20.0903	-2.0344	1.0785	0.77372	-0.52932	-1.5002	1.4166	-40.8179	725.65	-52.0113	273.9021	61.6463	654.0938	-0.0592	0.0182	-0.0073	-0.0462	0.0165	0.9585
20.1037	-0.74131	1.171	0.37982	-0.47422	-0.50598	1.2547	-39.0953	726.5698	-50.5841	274.9207	59.9198	649.1084	-0.0592	0.0182	-0.0073	-0.0462	0.0165	0.9585
20.1171	0.055143	1.2729	0.12897	-0.44339	0.10552	1.1902	-36.6751	730.5615	-49.1123	276.9493	57.7515	646.6289	-0.0592	0.0182	-0.0073	-0.0462	0.0165	0.9585
20.1306	0.46162	1.3454	-0.006231	-0.42601	0.41177	1.1709	-33.7447	737.0476	-47.7917	279.7912	55.4027	646.1821	-0.0592	0.0182	-0.0073	-0.0462	0.0165	0.9585
20.144	0.58083	1.3445	-0.049676	-0.40503	0.49089	1.1435	-30.4842	745.2281	-46.7483	283.1655	53.0656	647.1039	-0.0592	0.0182	-0.0073	-0.0462	0.0165	0.9585
20.1574	0.51713	1.2059	-0.031401	-0.35233	0.42402	1.0298	-27.0637	754.1614	-46.0559	286.7354	50.8809	648.6063	-0.0592	0.0182	-0.0073	-0.0462	0.0165	0.9585
20.1709	0.34015	0.87486	0.024913	-0.23961	0.27127	0.76276	-23.604	762.8234	-45.7397	290.1295	48.9293	649.8337	-0.0592	0.0182	-0.0073	-0.0462	0.0165	0.9585
20.1843	0.11499	0.29028	0.10229	-0.037235	0.080374	0.26021	-20.1764	770.1796	-45.7679	292.9701	47.2235	649.9343	-0.0592	0.0182	-0.0073	-0.0462	0.0165	0.9585
20.1977	-0.11214	-0.60092	0.18457	0.27934	-0.11217	-0.54135	-16.784	775.2993	-46.0598	294.9231	45.7109	648.1479	-0.0592	0.0182	-0.0073	-0.0462	0.0165	0.9585
20.2111	-0.28748	-1.8238	0.25673	0.72138	-0.27083	-1.6692	-13.3618	777.5284	-46.4869	295.7612	44.275	643.9501	-0.0592	0.0182	-0.0073	-0.0462	0.0165	0.9585
20.2246	-0.34919	-3.3471	0.30811	1.2756	-0.36168	-3.0987	-9.8176	776.5893	-46.9181	295.3999	42.7856	637.1324	-0.0592	0.0182	-0.0073	-0.0462	0.0165	0.9585
20.238	-0.23734	-5.0283	0.32143	1.8873	-0.34236	-4.6935	-6.0686	772.6201	-47.2553	293.9109	41.1378	627.8291	-0.0592	0.0182	-0.0073	-0.0462	0.0165	0.9585
20.2514	0.14728	-6.5689	0.2743	2.4461	-0.15554	-6.1756	-2.0676	766.1828	-47.4676	291.5191	39.289	616.528	-0.0592	0.0182	-0.0073	-0.0462	0.0165	0.9585
20.2649	0.90441	-7.4435	0.13149	2.7597	0.2669	-7.0343	2.2014	758.1732	-47.5847	288.5655	37.2523	603.9961	-0.0592	0.0182	-0.0073	-0.0462	0.0165	0.9585
20.2783	2.1334	-6.8543	-0.14106	2.5311	0.98887	-6.5084	6.6816	749.6437	-47.6798	285.4395	35.1021	591.1481	-0.0592	0.0182	-0.0073	-0.0462	0.0165	0.9585
20.2917	3.9009	-3.6974	-0.57242	1.344	2.0597	-3.5439	11.2496	741.5679	-47.8242	282.4946	32.9392	578.8532	-0.0592	0.0182	-0.0073	-0.0462	0.0165	0.9585
20.3051	6.1954	3.3933	-1.1748	-1.3189	3.4835	3.1756	15.7323	734.5928	-48.075	279.9532	30.8773	567.7346	-0.0592	0.0182	-0.0073	-0.0462	0.0165	0.9585
20.3186	8.8701	15.9256	-1.9346	-6.0266	5.1883	15.1037	19.9005	728.8152	-48.4565	277.8219	29.0272	558.0031	-0.0592	0.0182	-0.0073	-0.0462	0.0165	0.9585
20.332	11.5427	35.29	-2.7799	-13.3002	6.9604	33.5999	23.5068	723.6287	-48.9583	275.8399	27.4881	549.3266	-0.0592	0.0182	-0.0073	-0.0462	0.0165	0.9585
20.3454	13.5267	62.2834	-3.5697	-23.4376	8.4045	59.4518	26.3032	717.752	-49.5038	273.4988	26.3112	540.8494	-0.0592	0.0182	-0.0073	-0.0462	0.0165	0.9585
20.3589	13.828	96.4906	-4.0709	-36.2766	8.9215	92.2879	28.0988	709.5085	-49.9406	270.1545	25.4718	531.3835	-0.0592	0.0182	-0.0073	-0.0462	0.0165	0.9585
20.3723	11.4205	135.6197	-3.9863	-50.9451	7.8432	129.9134	28.8035	697.2359	-50.0608	265.1853	24.8733	519.7004	-0.0592	0.0182	-0.0073	-0.0462	0.0165	0.9585
20.3857	6.2957	175.4114	-2.8585	-65.8195	4.7328	168.2174	28.4537	679.7525	-49.6613	258.1673	24.3737	504.8857	-0.0592	0.0182	-0.0073	-0.0462	0.0165	0.9585
20.3991	-0.059006	211.2037	-0.19713	-79.1241	-0.30291	202.599	27.2722	656.7558	-48.6265	249.0239	23.8214	486.6073	-0.0592	0.0182	-0.0073	-0.0462	0.0165	0.9585
20.4126	-6.2856	240.7852	3.6381	-90.0543	-6.3677	230.7193	25.6539	628.9386	-46.9778	238.0552	23.0842	465.2091	-0.0592	0.0182	-0.0073	-0.0462	0.0165	0.9585
20.426	-11.6073	265.3573	8.0602	-99.0977	-12.5961	253.5825	24.0699	597.6052	-44.8815	225.7855	22.0969	441.4561	-0.0592	0.0182	-0.0073	-0.0462	0.0165	0.9585
20.4394	-15.6947	287.4937	12.4214	-107.2727	-18.2437	273.6353	22.8918	564.1203	-42.5234	212.7579	20.8411	416.1946	-0.0592	0.0182	-0.0073	-0.0462	0.0165	0.9585
20.4529	-18.5289	309.5594	16.2762	-115.509	-22.8901	293.1613	22.2845	529.5459	-39.9714	199.3992	19.2926	390.1247	-0.0592	0.0182	-0.0073	-0.0462	0.0165	0.9585
20.4663	-20.2533	333.0239	19.2824	-124.3817	-26.2769	313.5407	22.2398	494.5129	-37.1817	185.9662	17.4158	363.6882	-0.0592	0.0182	-0.0073	-0.0462	0.0165	0.9585
20.4797	-21.0862	358.4264	21.41	-134.0866	-28.4663	335.2982	22.611	459.2123	-34.1065	172.5381	15.2182	337.0467	-0.0592	0.0182	-0.0073	-0.0462	0.0165	0.9585
20.4931	-21.2342	385.7164	22.7271	-144.581	-29.6125	358.4109	23.1533	423.5147	-30.7681	159.0575	12.7861	310.1566	-0.0592	0.0182	-0.0073	-0.0462	0.0165	0.9585
20.5066	-20.8892	414.6313	23.6139	-155.715	-30.148	382.6913	23.584	387.1331	-27.2839	145.3936	10.2947	282.864	-0.0592	0.0182	-0.0073	-0.0462	0.0165	0.9585
20.52	-20.1714	444.9529	24.4378	-167.3559	-30.4533	407.9266	23.5941	349.8043	-23.8005	131.416	7.9496	255.0308	-0.0592	0.0182	-0.0073	-0.0462	0.0165	0.9585
20.5334	-19.2391	476.5764	25.6534	-179.4166	-30.9963	434.0187	22.8958	311.4236	-20.4531	117.0573	5.9433	226.6159	-0.0592	0.0182	-0.0073	-0.0462	0.0165	0.9585
20.5469	-18.2383	509.5111	27.5303	-191.8702	-32.066	460.9454	21.2878	272.2051	-17.3318	102.3758	4.4098	197.7882	-0.0592	0.0182	-0.0073	-0.0462	0.0165	0.9585
20.5603	-17.2617	543.9057	30.254	-204.7481	-33.8587	488.8188	18.7111	232.7847	-14.4973	87.5967	3.4174	168.9939	-0.0592	0.0182	-0.0073	-0.0462	0.0165	0.9585
20.5737	-16.3338	579.8647	33.6962	-218.0826	-36.2629	517.6959	15.3017	194.1699	-11.98	73.0956	2.9415	140.9209	-0.0592	0.0182	-0.0073	-0.0462	0.0165	0.9585
20.5871	-15.4484	617.1374	37.6758	-231.7759	-39.1193	547.3412	11.3696	157.5656	-9.7882	59.3275	2.8749	114.3943	-0.0592	0.0182	-0.0073	-0.0462	0.0165	0.9585
20.6006	-14.6578	654.9521	41.918	-245.5354	-42.1995	577.1187	7.3429	124.0988	-7.902	46.7226	3.0453	90.1817	-0.0592	0.0182	-0.0073	-0.0462	0.0165	0.9585
20.614	-14.0248	692.0584	46.2648	-258.8885	-45.3862	606.0154	3.6374	94.565	-6.2923	35.5916	3.281	68.8166	-0.0592	0.0182	-0.0073	-0.0462	0.0165	0.9585
20.6274	-13.6179	726.9774	50.5497	-271.2779	-48.5545	632.8379	0.54871	69.3668	-4.9175	26.0949	3.4461	50.5791	-0.0592	0.0182	-0.0073	-0.0462	0.0165	0.9585
20.6409	-13.4522	758.2327	54.6589	-282.1508	-51.6138	656.4046	-1.7395	48.5415	-3.7427	18.2523	3.4528	35.4957	-0.0592	0.0182	-0.0073	-0.0462	0.0165	0.9585
20.6543	-13.4653	784.5509	58.4146	-291.0425	-54.3891	675.6953	-3.1625	31.8888	-2.7348	11.9884	3.2545	23.4311	-0.0592	0.0182	-0.0073	-0.0462	0.0165	0.9585
20.6677	-13.5558	804.95	61.6763	-297.6111	-56.7266	689.926	-3.7364	19.0853	-1.881	7.1787	2.8491	14.1513	-0.0592	0.0182	-0.0073	-0.0462	0.0165	0.9585
20.6811	-13.5765	818.7585	64.3121	-301.6415	-58.4631	698.5461	-3.5743	9.7759	-1.1878	3.6839	2.2847	7.395	-0.0592	0.0182	-0.0073	-0.0462	0.0165	0.9585
20.6946	-13.3769	825.6447	66.2633	-303.0472	-59.4996	701.2873	-2.9552	3.5639	-0.65979	1.3506	1.6651	2.8786	-0.0592	0.0182	-0.0073	-0.0462	0.0165	0.9585
20.708	-12.8147	825.6601	67.5032	-301.8835	-59.7728	698.1992	-2.1712	-0.10653	-0.29017	-0.030675	1.0942	0.20693	-0.0592	0.0182	-0.0073	-0.0462	0.0165	0.9585
20.7214	-11.7999	819.3214	68.0603	-298.3733	-59.2886	689.717	-1.4065	-1.8874	-0.051227	-0.70422	0.62189	-1.082	-0.0592	0.0182	-0.0073	-0.0462	0.0165	0.9585
20.7349	-10.2915	807.6472	67.9911	-292.9154	-58.0968	676.6992	-0.75032	-2.3978	0.08207	-0.90029	0.26945	-1.4383	-0.0592	0.0182	-0.0073	-0.0462	0.0165	0.9585
20.7483	-8.2946	792.0376	67.4155	-286.0358	-56.316	660.3187	-0.24778	-2.1436	0.1431	-0.80626	0.029946	-1.2223	-0.0592	0.0182	-0.0073	-0.0462	0.0165	0.9585
20.7617	-5.8585	774.1289	66.49	-278.3375	-54.1084	641.9416	0.10643	-1.5094	0.15013	-0.56453	-0.10753	-0.72008	-0.0592	0.0182	-0.0073	-0.0462	0.0165	0.9585
20.7751	-3.0621	755.6593	65.3587	-270.4596	-51.6275	622.9962	0.32949	-0.74902	0.12923	-0.27007	-0.16866	-0.12188	-0.0592	0.0182	-0.0073	-0.0462	0.0165	0.9585
20.7886	0.0011472	738.3325	64.158	-263.026	-49.0248	604.874	0.44554	-0.015544	0.085613	0.018194	-0.16842	0.45831	-0.0592	0.0182	-0.0073	-0.0462	0.0165	0.9585
20.802	3.2326	723.6502	62.9907	-256.5871	-46.4214	588.7855	0.48902	0.6062	0.03855	0.26718	-0.14112	0.94731	-0.0592	0.0182	-0.0073	-0.0462	0.0165	0.9585
20.8154	6.5322	712.746	61.957	-251.5624	-43.9342	575.6245	0.48167	1.084	-0.013486	0.46211	-0.094648	1.3182	-0.0592	0.0182	-0.0073	-0.0462	0.0165	0.9585
